<svg width="647" height="491" viewBox="0 0 647 491" fill="none" xmlns="http://www.w3.org/2000/svg">
<path d="M556.008 195.729C527.571 83.9919 429.311 3.3336 313.976 0.0984616C253.002 -1.61186 188.84 18.5953 142.126 89.3074C58.6184 215.713 147.257 303.063 209.054 344.57C238.91 364.664 265.811 388.824 288.979 416.352C330.721 465.848 411.022 527.353 506.658 430.984C575.975 361.135 574.95 270.156 556.008 195.729Z" fill="#F2F2F2"/>
<path opacity="0.1" d="M427.924 301.504L486.439 243.211L427.924 184.918L445.764 167.15L522.119 243.211L445.764 319.271L427.924 301.504Z" fill="black"/>
<path opacity="0.1" d="M260.822 247.37H284.609V223.601H260.822V247.37ZM380.231 223.601H356.445V247.37H380.231V223.601ZM308.633 247.37H332.42V223.601H308.633V247.37Z" fill="black"/>
<path opacity="0.1" d="M228.591 300.909L170.016 242.616L228.531 184.323L210.691 166.556L134.395 242.616L210.751 318.676L228.591 300.909Z" fill="black"/>
<path d="M647 447.028C647 456.873 502.164 491 323.5 491C144.836 491 0 456.873 0 447.028C0 437.182 144.836 455.347 323.5 455.347C502.164 455.347 647 437.182 647 447.028Z" fill="#3F3D56"/>
<path opacity="0.1" d="M647 447.028C647 456.873 502.164 491 323.5 491C144.836 491 0 456.873 0 447.028C0 437.182 144.836 455.347 323.5 455.347C502.164 455.347 647 437.182 647 447.028Z" fill="black"/>
<path d="M323.5 464.854C502.164 464.854 647 456.873 647 447.028C647 437.182 502.164 429.201 323.5 429.201C144.836 429.201 0 437.182 0 447.028C0 456.873 144.836 464.854 323.5 464.854Z" fill="#3F3D56"/>
<path d="M376.245 361.258C376.245 399.297 400.127 430.079 429.641 430.079Z" fill="#3F3D56"/>
<path d="M429.641 430.079C429.641 391.611 456.292 360.484 489.227 360.484Z" fill="#FE5454"/>
<path d="M395.591 364.706C395.591 400.84 410.82 430.079 429.641 430.079Z" fill="#FF6565"/>
<path d="M429.641 430.079C429.641 380.926 460.445 341.153 498.514 341.153Z" fill="#3F3D56"/>
<path d="M418.407 430.564C418.407 430.564 425.98 430.331 428.262 428.707C430.544 427.083 439.91 425.144 440.476 427.748C441.043 430.353 451.856 440.701 443.307 440.77C434.758 440.839 423.443 439.439 421.165 438.053C418.887 436.666 418.407 430.564 418.407 430.564Z" fill="#A8A8A8"/>
<path opacity="0.2" d="M443.46 439.863C434.91 439.932 423.595 438.533 421.317 437.146C419.583 436.09 418.892 432.302 418.66 430.554C418.5 430.561 418.407 430.564 418.407 430.564C418.407 430.564 418.887 436.666 421.165 438.053C423.443 439.439 434.758 440.839 443.307 440.77C445.775 440.75 446.627 439.873 446.581 438.573C446.238 439.358 445.297 439.849 443.46 439.863Z" fill="black"/>
<path d="M514.706 227.499C514.706 227.499 496.397 213.608 495.007 218.7C493.617 223.792 508.441 235.364 508.441 235.364L514.706 227.499Z" fill="#FFB9B9"/>
<path opacity="0.1" d="M514.706 227.499C514.706 227.499 496.397 213.608 495.007 218.7C493.617 223.792 508.441 235.364 508.441 235.364L514.706 227.499Z" fill="black"/>
<path d="M575.148 183.52C575.148 183.52 553.375 222.403 552.912 227.958C552.449 233.512 552.449 233.975 550.596 233.512C548.743 233.049 523.265 230.272 520.948 231.198C518.632 232.124 514 225.643 514 225.643C514 225.643 505.198 234.438 507.051 236.29C508.904 238.141 514.463 239.067 515.39 241.381C516.316 243.696 517.706 246.01 521.875 245.548C526.044 245.085 554.302 252.954 558.008 251.565C561.714 250.176 562.64 247.862 564.493 247.862C566.346 247.862 570.052 246.01 570.052 245.548C570.052 245.085 583.023 220.551 583.023 220.551C583.023 220.551 598.31 187.223 575.148 183.52Z" fill="#D0CDE1"/>
<path opacity="0.1" d="M575.148 183.52C575.148 183.52 553.375 222.403 552.912 227.958C552.449 233.512 552.449 233.975 550.596 233.512C548.743 233.049 523.265 230.272 520.948 231.198C518.632 232.124 514 225.643 514 225.643C514 225.643 505.198 234.438 507.051 236.29C508.904 238.141 514.463 239.067 515.39 241.381C516.316 243.696 517.706 246.01 521.875 245.548C526.044 245.085 554.302 252.954 558.008 251.565C561.714 250.176 562.64 247.862 564.493 247.862C566.346 247.862 570.052 246.01 570.052 245.548C570.052 245.085 583.023 220.551 583.023 220.551C583.023 220.551 598.31 187.223 575.148 183.52Z" fill="black"/>
<path d="M543.559 157.887C543.362 160.345 543.402 162.816 543.678 165.267C544.382 170.585 546.832 176.128 544.518 181.093C543.677 182.895 542.254 184.465 541.479 186.288C539.838 190.148 541.326 194.43 541.103 198.539C540.815 203.846 537.437 208.96 532.298 211.868C541.077 212.141 549.427 207.803 554.951 201.893C560.475 195.982 563.551 188.651 565.858 181.316C567.043 177.872 567.803 174.295 568.12 170.666C568.304 168.582 568.06 166.482 567.402 164.495C566.59 162.554 565.522 160.731 564.225 159.074C562.842 157.13 561.42 155.149 559.38 153.703C556.866 151.922 552.019 150.134 548.684 150.393C544.594 150.711 543.732 155.05 543.559 157.887Z" fill="#2F2E41"/>
<path d="M557.081 172.411C557.081 172.411 562.177 190.463 558.008 195.555C553.839 200.647 583.023 193.241 583.023 193.241C583.023 193.241 568.662 178.891 575.611 169.633L557.081 172.411Z" fill="#FFB9B9"/>
<path opacity="0.1" d="M557.081 172.411C557.081 172.411 562.177 190.463 558.008 195.555C553.839 200.647 583.023 193.241 583.023 193.241C583.023 193.241 568.662 178.891 575.611 169.633L557.081 172.411Z" fill="black"/>
<path d="M427.924 290.213L486.439 231.92L427.924 173.627L445.764 155.86L522.119 231.92L445.764 307.981L427.924 290.213Z" fill="#FF6565"/>
<path d="M540.404 413.114V426.538L547.353 434.87L553.375 432.092L551.522 412.651L540.404 413.114Z" fill="#FFB9B9"/>
<path d="M543.184 425.612C543.184 425.612 541.331 419.132 538.088 423.76C534.846 428.389 531.603 438.573 529.75 439.036C527.897 439.499 514.926 453.848 527.897 453.848C540.868 453.848 545.037 447.831 545.037 447.831C545.037 447.831 558.008 442.739 558.008 441.813C558.008 440.887 556.155 423.76 555.228 423.76C554.302 423.76 553.838 427.001 551.522 427.001C549.206 427.001 543.184 425.612 543.184 425.612Z" fill="#2F2E41"/>
<path d="M571.442 415.429L570.979 427.927L582.096 432.555V414.503L571.442 415.429Z" fill="#FFB9B9"/>
<path d="M583.486 427.926C583.486 427.926 577.464 421.446 574.221 422.835C572.617 423.48 571.068 424.254 569.589 425.149C569.589 425.149 567.736 431.167 566.809 436.258C565.883 441.35 565.42 443.665 564.493 445.516C563.567 447.368 562.64 454.311 571.905 455.237C581.17 456.163 583.949 451.071 583.949 451.071L586.265 439.036C586.265 439.036 585.339 427.926 583.486 427.926Z" fill="#2F2E41"/>
<path d="M546.427 282.116C546.427 282.116 532.993 312.204 534.846 339.514C534.846 339.514 530.213 350.161 532.993 366.825C535.772 383.489 539.478 416.817 539.478 416.817C539.478 416.817 551.986 418.206 552.912 415.891C552.912 415.891 553.839 392.747 554.765 391.821C555.692 390.895 554.302 369.602 552.912 365.436C551.522 361.27 565.883 320.073 565.883 320.073L562.177 268.692L546.427 282.116Z" fill="#2F2E41"/>
<path opacity="0.1" d="M546.427 282.116C546.427 282.116 532.993 312.204 534.846 339.514C534.846 339.514 530.213 350.161 532.993 366.825C535.772 383.489 539.478 416.817 539.478 416.817C539.478 416.817 551.986 418.206 552.912 415.891C552.912 415.891 553.839 392.747 554.765 391.821C555.692 390.895 554.302 369.602 552.912 365.436C551.522 361.27 565.883 320.073 565.883 320.073L562.177 268.692L546.427 282.116Z" fill="black"/>
<path d="M542.721 280.264L551.522 299.243C551.522 299.243 555.692 342.292 558.008 347.846C558.008 347.846 558.934 363.585 563.103 368.676C567.273 373.768 570.515 418.669 570.515 418.669C570.515 418.669 582.096 421.909 583.023 418.669C583.949 415.428 586.729 393.21 586.729 393.21C586.729 393.21 587.655 374.231 582.56 361.733C577.464 349.235 588.582 304.335 588.582 304.335C588.582 304.335 600.163 282.579 583.486 264.989L542.721 280.264Z" fill="#2F2E41"/>
<path d="M567.273 177.965C577.762 177.965 586.265 169.468 586.265 158.987C586.265 148.505 577.762 140.008 567.273 140.008C556.783 140.008 548.28 148.505 548.28 158.987C548.28 169.468 556.783 177.965 567.273 177.965Z" fill="#FFB9B9"/>
<path d="M584.876 187.686C584.876 187.686 564.956 187.686 562.177 190.001C561.49 190.654 560.578 191.018 559.629 191.018C558.681 191.018 557.768 190.654 557.081 190.001C557.081 190.001 550.133 190.463 548.28 196.018C546.427 201.573 540.868 208.979 540.868 208.979C540.868 208.979 532.529 214.997 537.162 230.735C541.794 246.473 538.088 271.932 538.088 271.932C538.088 271.932 534.382 277.487 538.088 279.801C541.794 282.116 543.184 283.042 542.721 284.893C542.258 286.745 584.876 269.618 584.876 266.378C584.876 263.137 583.949 260.36 584.876 258.971C585.802 257.583 586.729 255.268 585.802 252.954C584.876 250.639 586.729 250.176 586.266 247.862C585.802 245.547 588.582 228.421 590.435 221.014C592.288 213.608 591.824 188.149 584.876 187.686Z" fill="#D0CDE1"/>
<path d="M514.706 233.053C514.706 233.053 496.397 219.163 495.007 224.255C493.617 229.346 508.441 240.919 508.441 240.919L514.706 233.053Z" fill="#FFB9B9"/>
<path d="M575.148 190.001C575.148 190.001 553.375 228.883 552.912 234.438C552.449 239.993 552.449 240.456 550.596 239.993C548.743 239.53 523.265 236.753 520.948 237.678C518.632 238.604 514 232.124 514 232.124C514 232.124 505.198 240.919 507.051 242.77C508.904 244.622 514.463 245.548 515.39 247.862C516.316 250.176 517.706 252.491 521.875 252.028C526.044 251.565 554.302 259.434 558.008 258.046C561.714 256.657 562.64 254.342 564.493 254.342C566.346 254.342 570.052 252.491 570.052 252.028C570.052 251.565 583.023 227.032 583.023 227.032C583.023 227.032 598.31 193.704 575.148 190.001Z" fill="#D0CDE1"/>
<path d="M557.868 171.112C557.604 169.232 556.641 167.527 556.147 165.695C555.76 164.228 555.674 162.698 555.894 161.198C556.115 159.697 556.636 158.256 557.428 156.962C560.152 152.566 565.501 150.618 569.231 147.034C569.308 148.86 570.576 150.42 571.978 151.594C573.379 152.768 574.987 153.721 576.173 155.112C577.313 156.579 578.144 158.261 578.617 160.058C579.347 162.139 579.675 164.341 579.582 166.545C579.528 167.646 579.252 168.725 578.768 169.716C578.284 170.707 577.604 171.59 576.769 172.31C575.379 173.407 573.438 174.034 572.767 175.671C572.503 176.489 572.426 177.357 572.544 178.208C572.862 183.301 573.159 188.484 571.959 193.444C570.759 198.404 567.818 203.196 563.21 205.394C566.997 205.663 570.864 205.924 574.538 204.969C578.212 204.014 581.726 201.609 582.992 198.033C583.617 196.268 583.676 194.306 584.564 192.659C586.811 188.488 593.017 188.298 596.065 184.671C597.285 183.219 597.875 181.349 598.313 179.504C600.886 168.651 599.078 157.127 595.16 146.683C593.809 143.083 592.128 139.458 589.231 136.928C586.766 134.775 583.618 133.589 580.505 132.576C575.962 131.097 571.282 129.886 566.507 129.73C564.432 129.608 562.353 129.851 560.362 130.447C558.397 131.156 556.568 132.197 554.955 133.525C547.475 139.341 542.382 148.637 543.057 158.084C543.466 163.8 545.89 169.209 549.004 174.022C550.093 175.705 552.666 179.294 555.058 178.236C557.227 177.276 558.152 173.142 557.868 171.112Z" fill="#2F2E41"/>
<path d="M260.822 236.08H284.609V212.311H260.822V236.08ZM380.231 212.311H356.445V236.08H380.231V212.311ZM308.633 236.08H332.42V212.311H308.633V236.08Z" fill="#FE5454"/>
<path d="M122.624 141.478C133.678 141.478 142.639 134.494 142.639 125.879C142.639 117.263 133.678 110.279 122.624 110.279C111.57 110.279 102.609 117.263 102.609 125.879C102.609 134.494 111.57 141.478 122.624 141.478Z" fill="#2F2E41"/>
<path d="M126.027 233.277C126.027 233.277 144.04 234.477 147.242 232.077C150.445 229.677 164.055 235.277 165.256 238.476C166.456 241.676 146.041 242.076 142.839 242.076C139.637 242.076 124.426 246.876 124.426 246.876L126.027 233.277Z" fill="#A0616A"/>
<path d="M88.9341 419.601C88.9341 419.601 80.5391 440.755 84.9191 443.308C89.2991 445.861 135.289 444.038 135.289 444.038C135.289 444.038 142.954 439.296 134.194 436.014C134.194 436.014 126.894 435.649 122.149 432.731C117.404 429.814 111.929 424.343 111.929 424.343C111.929 424.343 111.564 416.319 108.644 418.142C107.77 418.718 107.027 419.469 106.461 420.348C105.895 421.228 105.52 422.216 105.359 423.249L88.9341 419.601Z" fill="#2F2E41"/>
<path opacity="0.1" d="M88.9341 419.601C88.9341 419.601 80.5391 440.755 84.9191 443.308C89.2991 445.861 135.289 444.038 135.289 444.038C135.289 444.038 142.954 439.296 134.194 436.014C134.194 436.014 126.894 435.649 122.149 432.731C117.404 429.814 111.929 424.343 111.929 424.343C111.929 424.343 111.564 416.319 108.644 418.142C107.77 418.718 107.027 419.469 106.461 420.348C105.895 421.228 105.52 422.216 105.359 423.249L88.9341 419.601Z" fill="black"/>
<path d="M228.591 289.619L170.016 231.326L228.531 173.033L210.691 155.266L134.395 231.326L210.751 307.386L228.591 289.619Z" fill="#FF6565"/>
<path d="M75.9899 426.073C75.9899 426.073 66.7831 449.272 71.5867 452.072C76.3902 454.872 126.827 452.872 126.827 452.872C126.827 452.872 135.233 447.672 125.626 444.072C125.626 444.072 117.621 443.672 112.417 440.472C107.213 437.273 101.208 431.273 101.208 431.273C101.208 431.273 100.808 422.473 97.6058 424.473C96.6477 425.103 95.8322 425.927 95.2118 426.892C94.5914 427.856 94.1797 428.94 94.0032 430.073L75.9899 426.073Z" fill="#2F2E41"/>
<path d="M123.225 278.876L117.62 329.275C117.62 329.275 115.619 353.274 109.615 358.474C109.615 358.474 109.615 366.074 107.613 368.474L104.811 400.073C104.811 400.073 108.814 411.673 108.414 413.673C108.013 415.673 110.015 422.073 109.615 422.873C109.214 423.673 90.4004 422.873 90.4004 422.873L94.4033 358.474L106.812 268.876L123.225 278.876Z" fill="#2F2E41"/>
<path opacity="0.1" d="M123.225 278.876L117.62 329.275C117.62 329.275 115.619 353.274 109.615 358.474C109.615 358.474 109.615 366.074 107.613 368.474L104.811 400.073C104.811 400.073 108.814 411.673 108.414 413.673C108.013 415.673 110.015 422.073 109.615 422.873C109.214 423.673 90.4004 422.873 90.4004 422.873L94.4033 358.474L106.812 268.876L123.225 278.876Z" fill="black"/>
<path d="M113.217 277.276C113.217 277.276 108.814 318.475 106.813 327.275C105.554 333.07 104.751 338.954 104.411 344.874C104.411 344.874 104.011 357.674 100.408 361.274C99.3538 362.317 98.5256 363.565 97.9747 364.941C97.4238 366.318 97.162 367.792 97.2055 369.274C97.2055 369.274 93.6029 409.673 95.6043 414.473C97.6058 419.273 99.6073 423.273 97.6058 426.473C95.6043 429.673 73.5881 429.673 73.5881 427.273C73.5881 424.873 73.5881 422.873 72.3873 421.673C71.1864 420.473 72.3873 412.873 72.3873 412.873C72.3873 412.873 67.5837 377.274 71.987 366.874C76.3902 356.474 78.3917 328.075 78.3917 328.075C78.3917 328.075 75.1893 295.675 71.1864 290.475C67.1834 285.276 71.987 266.876 71.987 266.876L113.217 277.276Z" fill="#2F2E41"/>
<path d="M101.948 149.335C102.413 150.394 103.527 150.984 104.541 151.542C110.418 154.777 115.337 159.468 120.184 164.105C118.975 160.009 119.232 155.621 120.913 151.695C121.492 150.356 122.25 148.916 121.836 147.518C121.532 146.489 120.656 145.747 119.807 145.091C117.829 143.562 115.762 142.153 113.616 140.871C112.117 139.975 109.036 137.589 107.316 137.849C107.226 140.171 107.178 142.247 106.161 144.417C105.919 144.932 102.125 149.74 101.948 149.335Z" fill="#A0616A"/>
<path d="M122.424 154.478C131.488 154.478 138.836 147.136 138.836 138.079C138.836 129.021 131.488 121.679 122.424 121.679C113.36 121.679 106.012 129.021 106.012 138.079C106.012 147.136 113.36 154.478 122.424 154.478Z" fill="#A0616A"/>
<path d="M123.225 176.878C123.225 176.878 126.027 162.878 118.021 158.078C110.015 153.278 100.808 147.678 100.808 147.678C100.808 147.678 98.0061 147.278 96.8052 153.278C96.8052 153.278 73.9884 157.678 71.5867 179.278C69.1849 200.877 73.1878 232.477 73.1878 232.477C73.1878 232.477 69.5852 260.076 65.1819 274.876C65.1819 274.876 61.5793 278.076 77.5911 273.276C93.6028 268.476 121.623 286.875 121.623 286.875C121.623 286.875 124.426 284.075 124.426 282.076C124.426 280.076 127.628 268.476 127.628 268.476C127.628 268.476 130.43 219.277 131.631 213.677C132.832 208.077 126.827 177.678 123.225 176.878Z" fill="#575A89"/>
<path d="M118.556 139.768C119.542 139.222 120.648 138.928 121.775 138.911C122.903 138.895 124.005 138.566 124.959 137.963C126.509 136.774 126.623 134.476 127.757 132.885C129.399 130.582 132.675 130.305 135.502 130.42C137.231 130.491 139.094 130.594 140.55 129.659C142.045 128.7 142.722 126.892 143.226 125.19C143.823 123.177 144.208 120.714 142.731 119.221C141.705 118.184 140.086 117.979 138.947 117.069C137.765 116.125 137.279 114.588 136.637 113.219C135.906 111.552 134.75 110.105 133.285 109.023C131.135 107.531 128.39 107.196 125.772 107.224C123.155 107.252 120.527 107.596 117.929 107.275C115.801 107.012 113.679 106.305 111.557 106.619C108.854 107.018 106.618 109.056 105.286 111.44C103.954 113.824 103.382 116.546 102.828 119.22L101.32 126.492C100.853 128.747 100.384 131.063 100.744 133.338C101.493 138.054 105.666 141.803 105.954 146.569C106.228 145.253 106.825 144.025 107.691 142.996C108.557 141.967 109.665 141.169 110.915 140.674C111.229 140.521 111.585 140.477 111.926 140.551C112.341 140.684 112.583 141.098 112.845 141.445C113.531 142.356 115.685 143.738 116.906 143.092C117.998 142.514 117.183 140.699 118.556 139.768Z" fill="#2F2E41"/>
<path d="M77.1908 214.477C77.1908 214.477 74.3888 232.077 85.9973 230.477C85.9973 230.477 92.0017 229.677 92.8023 230.477C93.6029 231.277 123.225 226.077 127.228 221.677C127.228 221.677 132.031 220.077 134.433 222.477C136.835 224.877 160.852 227.277 153.647 220.077C146.442 212.877 135.233 211.277 135.233 211.277L120.022 212.077C120.022 212.077 112.016 214.477 107.213 212.077C102.409 209.677 88.7993 210.477 88.7993 210.477L77.1908 214.477Z" fill="#A0616A"/>
<path d="M93.6031 158.878C93.6031 158.878 75.5898 160.878 75.5898 186.878V220.077C75.5898 220.077 85.5972 215.677 87.5987 216.077C89.6002 216.477 97.606 210.877 97.606 210.877C97.606 210.877 106.813 189.277 106.012 183.278C105.212 177.278 105.612 159.678 93.6031 158.878Z" fill="#575A89"/>
<path d="M122.424 135.879C130.935 135.879 137.835 132.297 137.835 127.879C137.835 123.46 130.935 119.879 122.424 119.879C113.913 119.879 107.013 123.46 107.013 127.879C107.013 132.297 113.913 135.879 122.424 135.879Z" fill="#2F2E41"/>
<path d="M108.013 142.678C110.998 142.678 113.417 136.679 113.417 129.279C113.417 121.878 110.998 115.879 108.013 115.879C105.029 115.879 102.609 121.878 102.609 129.279C102.609 136.679 105.029 142.678 108.013 142.678Z" fill="#2F2E41"/>
</svg>
