<svg width="92" height="85" viewBox="0 0 92 85" fill="none" xmlns="http://www.w3.org/2000/svg">
<path fill-rule="evenodd" clip-rule="evenodd" d="M46 0C33.8 0 22.0998 4.45054 13.4731 12.3726C4.84642 20.2946 0 31.0391 0 42.2426C0 53.446 4.84642 64.1905 13.4731 72.1126C22.0998 80.0346 33.8 84.4851 46 84.4851C58.2 84.4851 69.9002 80.0346 78.5269 72.1126C87.1536 64.1905 92 53.446 92 42.2426C92 31.0391 87.1536 20.2946 78.5269 12.3726C69.9002 4.45054 58.2 0 46 0ZM46 73.9245C44.475 73.9245 43.0125 73.3682 41.9341 72.3779C40.8558 71.3876 40.25 70.0446 40.25 68.6441C40.25 67.2437 40.8558 65.9007 41.9341 64.9104C43.0125 63.9201 44.475 63.3638 46 63.3638C47.525 63.3638 48.9875 63.9201 50.0659 64.9104C51.1442 65.9007 51.75 67.2437 51.75 68.6441C51.75 70.0446 51.1442 71.3876 50.0659 72.3779C48.9875 73.3682 47.525 73.9245 46 73.9245ZM55.4703 43.5257C52.7505 45.453 51.2498 46.5143 51.2498 49.5822V53.8804C51.2498 56.304 48.9152 58.2842 46.0345 58.2842C43.148 58.2842 40.8078 56.304 40.8078 53.8804V49.5822C40.8078 42.4168 45.586 39.0321 48.7428 36.7933C51.4683 34.8607 52.9633 33.8046 52.9633 30.742C52.9633 27.2887 49.8525 24.469 46.0345 24.469C42.2107 24.469 39.1058 27.2834 39.1058 30.742C39.1058 33.1762 36.7598 35.1405 33.879 35.1405C31.004 35.1405 28.6522 33.1762 28.6522 30.742C28.6522 22.4308 36.455 15.672 46.0345 15.672C55.6082 15.672 63.4053 22.4255 63.4053 30.742C63.4053 37.9021 58.6328 41.2815 55.4703 43.5257Z" fill="#FE5454"/>
</svg>
